<svg width="525" height="129" viewBox="0 0 525 129" fill="none"
  xmlns="http://www.w3.org/2000/svg">
  <g clip-path="url(#clip0_45_477)">
    <path d="M441.075 108.04H461.065V71.52H504.815V108.04H524.805V20H504.815V54.86H461.065V20H441.075V108.04Z" fill="#202022"/>
    <path d="M431.355 68.0499C431.355 36.1099 414.695 16.3899 388.445 16.3899C362.195 16.3899 342.475 38.3299 342.475 63.7399C342.475 90.3999 361.225 111.23 390.665 111.23C404.135 111.23 416.635 106.79 427.045 97.8999L418.295 84.9899C410.795 90.4099 401.495 94.5699 391.355 94.5699C376.355 94.5699 365.665 85.9599 362.605 71.9299H431.345V68.0399L431.355 68.0499ZM362.475 56.2399C365.115 42.4899 375.665 33.1899 388.445 33.1899C401.225 33.1899 409.555 41.9399 411.775 56.2399H362.475Z" fill="#202022"/>
    <path d="M296.505 111.24C321.085 111.24 336.365 99.5799 336.365 84.0199C336.365 74.4399 330.945 66.1099 317.615 63.4699L316.785 63.3299V62.4999L317.615 62.3599C330.255 59.8599 335.525 52.0799 335.525 42.9199C335.525 28.7599 322.335 16.6699 299.415 16.6699C283.865 16.6699 268.725 22.4999 256.225 31.8099L264.145 45.4199C272.895 39.3099 285.255 33.3399 298.025 33.3399C309.685 33.3399 316.075 38.3399 316.075 44.9999C316.075 51.1099 310.385 55.6899 298.165 56.1099L277.055 57.0799V70.4099L298.165 71.3799C311.075 72.0699 316.075 76.6599 316.075 82.3499C316.075 89.0199 309.135 94.8499 295.105 94.8499C281.075 94.8499 269.555 89.1599 259.695 82.3499V100.96C265.665 104.43 278.715 111.24 296.495 111.24H296.505Z" fill="#202022"/>
    <path d="M242.215 88.18V20H172.365L167.225 65.41C165.005 84.02 159.445 88.18 149.445 88.18H148.615V128.04H168.615V108.04H233.885V128.04H253.885V88.18H242.225H242.215ZM222.355 91.38H173.615V90.55C179.585 88.33 184.725 84.58 186.255 70L189.725 36.53H222.355V91.38Z" fill="#202022"/>
    <path d="M128.615 62.75C128.615 62.11 128.095 61.58 127.455 61.55C104.485 60.68 90.505 57.75 80.725 47.97C70.925 38.17 68.0049 24.18 67.1349 1.16C67.1149 0.52 66.585 0 65.935 0H63.255C62.615 0 62.085 0.52 62.055 1.16C61.185 24.17 58.265 38.17 48.465 47.97C38.675 57.76 24.705 60.68 1.73495 61.55C1.09495 61.57 0.574951 62.1 0.574951 62.75V65.43C0.574951 66.07 1.09495 66.6 1.73495 66.63C24.705 67.5 38.685 70.43 48.465 80.21C58.245 89.99 61.165 103.94 62.045 126.87C62.065 127.51 62.5949 128.03 63.2449 128.03H65.935C66.575 128.03 67.1049 127.51 67.1349 126.87C68.0149 103.94 70.935 89.99 80.715 80.21C90.505 70.42 104.475 67.5 127.445 66.63C128.085 66.61 128.605 66.08 128.605 65.43V62.75H128.615Z" fill="#202022"/>
  </g>
  <defs>
    <clipPath id="clip0_45_477">
      <rect width="524.23" height="128.04" fill="white" transform="translate(0.574951)"/>
    </clipPath>
  </defs>
</svg>
