<svg width="40" height="40" viewBox="0 0 40 40" fill="none" xmlns="http://www.w3.org/2000/svg">
<g clip-path="url(#clip0_199_1263)">
<path d="M9 13.9393V13.375C9 13.0103 9.14487 12.6606 9.40273 12.4027C9.66059 12.1449 10.0103 12 10.375 12H29.625C29.9897 12 30.3394 12.1449 30.5973 12.4027C30.8551 12.6606 31 13.0103 31 13.375V13.9393L20 20.8143L9 13.9393ZM20.3644 22.2082C20.2551 22.2764 20.1288 22.3126 20 22.3126C19.8712 22.3126 19.7449 22.2764 19.6356 22.2082L9 15.5607V27.125C9 27.4897 9.14487 27.8394 9.40273 28.0973C9.66059 28.3551 10.0103 28.5 10.375 28.5H29.625C29.9897 28.5 30.3394 28.3551 30.5973 28.0973C30.8551 27.8394 31 27.4897 31 27.125V15.5607L20.3644 22.2082Z" fill="#3D210B"/>
</g>
<rect x="0.5" y="0.5" width="39" height="39" rx="4.5" stroke="#3D210B"/>
<defs>
<clipPath id="clip0_199_1263">
<rect width="22" height="16.5" fill="white" transform="translate(9 12)"/>
</clipPath>
</defs>
</svg>
