<svg width="40" height="40" viewBox="0 0 40 40" fill="none" xmlns="http://www.w3.org/2000/svg">
<path d="M20 9C17.6139 9.00268 15.3262 9.95175 13.639 11.639C11.9518 13.3262 11.0027 15.6139 11 18C11 21.6619 13.6584 24.7028 16.4743 27.9214C17.3653 28.9406 18.2877 29.9948 19.109 31.0613C19.2141 31.1976 19.3491 31.308 19.5035 31.3839C19.658 31.4599 19.8279 31.4994 20 31.4994C20.1721 31.4994 20.342 31.4599 20.4965 31.3839C20.6509 31.308 20.7859 31.1976 20.891 31.0613C21.7122 29.9948 22.6347 28.9406 23.5257 27.9214C26.3416 24.7028 29 21.6619 29 18C28.9973 15.6139 28.0482 13.3262 26.361 11.639C24.6738 9.95175 22.3861 9.00268 20 9ZM20 21.375C19.3325 21.375 18.68 21.1771 18.1249 20.8062C17.5699 20.4354 17.1374 19.9083 16.8819 19.2916C16.6265 18.6749 16.5596 17.9963 16.6898 17.3416C16.8201 16.6869 17.1415 16.0855 17.6135 15.6135C18.0855 15.1415 18.6869 14.8201 19.3416 14.6899C19.9963 14.5596 20.6749 14.6265 21.2916 14.8819C21.9083 15.1374 22.4354 15.5699 22.8062 16.125C23.1771 16.68 23.375 17.3325 23.375 18C23.375 18.8951 23.0194 19.7536 22.3865 20.3865C21.7536 21.0194 20.8951 21.375 20 21.375Z" fill="#3D210B"/>
<rect x="0.5" y="0.5" width="39" height="39" rx="4.5" stroke="#3D210B"/>
</svg>
