<svg width="40" height="40" viewBox="0 0 40 40" fill="none" xmlns="http://www.w3.org/2000/svg">
<rect x="0.5" y="0.5" width="39" height="39" rx="4.5" stroke="#3D210B"/>
<g clip-path="url(#clip0_199_1268)">
<path d="M25.4 30C21.3173 29.9947 17.4033 28.3705 14.5164 25.4836C11.6295 22.5967 10.0053 18.6827 10 14.6C10 13.38 10.4846 12.21 11.3473 11.3473C12.21 10.4846 13.38 10 14.6 10C14.8583 9.99803 15.1162 10.0215 15.37 10.07C15.6153 10.1063 15.8565 10.1666 16.09 10.25C16.2542 10.3076 16.4006 10.4071 16.5146 10.5387C16.6286 10.6702 16.7063 10.8292 16.74 11L18.11 17C18.1469 17.1629 18.1425 17.3324 18.0971 17.4931C18.0516 17.6538 17.9667 17.8006 17.85 17.92C17.72 18.06 17.71 18.07 16.48 18.71C17.465 20.8709 19.1932 22.6062 21.35 23.6C22 22.36 22.01 22.35 22.15 22.22C22.2694 22.1033 22.4162 22.0184 22.5769 21.9729C22.7376 21.9275 22.9071 21.9231 23.07 21.96L29.07 23.33C29.2353 23.3684 29.3881 23.4481 29.5141 23.5619C29.64 23.6756 29.735 23.8195 29.79 23.98C29.8744 24.2174 29.938 24.4616 29.98 24.71C30.0202 24.9613 30.0403 25.2155 30.04 25.47C30.0216 26.6848 29.5233 27.8429 28.654 28.6917C27.7847 29.5404 26.6149 30.0107 25.4 30Z" fill="#3D210B"/>
</g>
<defs>
<clipPath id="clip0_199_1268">
<rect width="24" height="24" fill="white" transform="translate(8 8)"/>
</clipPath>
</defs>
</svg>
