<svg width="284" height="54" viewBox="0 0 284 54" fill="none" xmlns="http://www.w3.org/2000/svg">
<path d="M65.2607 49.3984V41.6263H67.0846V49.3984H65.2607ZM83.4569 49.3984H81.633V43.217H79.4102V41.6263H85.6797V43.217H83.4569V49.3984ZM116.165 47.4502H112.02V46.1549H116.165V47.4502ZM147.054 43.6045H148.795L146.503 46.3847L148.996 49.3984H147.203L144.837 46.459V49.3984H143.256V43.6045H144.837V46.4166L147.054 43.6045ZM166.554 46.4909C166.554 46.9719 166.487 47.3999 166.353 47.7749C166.225 48.1498 166.038 48.4682 165.79 48.7299C165.55 48.9846 165.256 49.1791 164.91 49.3135C164.563 49.4409 164.17 49.5046 163.732 49.5046C163.329 49.5046 162.954 49.4409 162.607 49.3135C162.267 49.1791 161.974 48.9846 161.726 48.7299C161.479 48.4682 161.284 48.1498 161.143 47.7749C161.008 47.3999 160.941 46.9719 160.941 46.4909C160.941 45.8471 161.054 45.3059 161.28 44.8673C161.507 44.4216 161.832 44.082 162.257 43.8486C162.681 43.6151 163.183 43.4984 163.764 43.4984C164.308 43.4984 164.789 43.6151 165.207 43.8486C165.624 44.082 165.953 44.4216 166.194 44.8673C166.434 45.3059 166.554 45.8471 166.554 46.4909ZM162.554 46.4909C162.554 46.8729 162.593 47.1948 162.671 47.4565C162.755 47.7112 162.886 47.9057 163.063 48.0402C163.24 48.1675 163.47 48.2312 163.753 48.2312C164.036 48.2312 164.262 48.1675 164.432 48.0402C164.609 47.9057 164.736 47.7112 164.814 47.4565C164.899 47.1948 164.941 46.8729 164.941 46.4909C164.941 46.1088 164.899 45.7905 164.814 45.5358C164.736 45.2811 164.609 45.0901 164.432 44.9628C164.255 44.8355 164.025 44.7718 163.742 44.7718C163.325 44.7718 163.021 44.9168 162.83 45.2069C162.646 45.4898 162.554 45.9178 162.554 46.4909ZM186.835 43.6045V49.3984H185.36V46.5545C185.36 46.2716 185.363 45.9957 185.37 45.7268C185.384 45.458 185.402 45.2104 185.423 44.984H185.391L183.789 49.3984H182.601L180.977 44.9734H180.935C180.963 45.2069 180.981 45.458 180.988 45.7268C181.002 45.9886 181.009 46.2786 181.009 46.597V49.3984H179.534V43.6045H181.773L183.216 47.5308L184.681 43.6045H186.835ZM205.424 43.6045V49.3984H203.842V44.793H201.741V49.3984H200.16V43.6045H205.424ZM221.132 43.4878C221.91 43.4878 222.505 43.6576 222.915 43.9971C223.332 44.3296 223.541 44.8425 223.541 45.5358V49.3984H222.438L222.13 48.6132H222.087C221.925 48.8183 221.755 48.9881 221.578 49.1225C221.408 49.2569 221.21 49.3525 220.984 49.409C220.764 49.4727 220.492 49.5046 220.167 49.5046C219.827 49.5046 219.519 49.4409 219.243 49.3135C218.975 49.1791 218.762 48.9775 218.607 48.7087C218.451 48.4328 218.373 48.0861 218.373 47.6687C218.373 47.0533 218.589 46.6005 219.021 46.3105C219.452 46.0133 220.099 45.8506 220.963 45.8223L221.971 45.7905V45.5358C221.971 45.2316 221.889 45.0088 221.727 44.8673C221.571 44.7258 221.352 44.6551 221.069 44.6551C220.786 44.6551 220.51 44.6975 220.241 44.7824C219.972 44.8602 219.703 44.9593 219.434 45.0795L218.914 44.0078C219.226 43.845 219.569 43.7177 219.944 43.6257C220.326 43.5338 220.722 43.4878 221.132 43.4878ZM221.355 46.7349C220.846 46.7491 220.492 46.841 220.294 47.0108C220.096 47.1806 219.997 47.4035 219.997 47.6794C219.997 47.9199 220.068 48.0932 220.209 48.1993C220.351 48.2984 220.535 48.3479 220.761 48.3479C221.1 48.3479 221.387 48.2488 221.62 48.0508C221.854 47.8456 221.971 47.5591 221.971 47.1912V46.7137L221.355 46.7349ZM238.413 43.6045V45.8329H240.621V43.6045H242.202V49.3984H240.621V47.0108H238.413V49.3984H236.832V43.6045H238.413ZM257.059 45.8966C257.059 46.0169 257.052 46.1654 257.038 46.3423C257.031 46.5192 257.02 46.6996 257.006 46.8835C256.999 47.0674 256.988 47.2301 256.974 47.3716C256.96 47.5131 256.949 47.6122 256.942 47.6687L259.617 43.6045H261.516V49.3984H259.988V47.0851C259.988 46.8941 259.995 46.6854 260.009 46.459C260.023 46.2256 260.037 46.0098 260.052 45.8117C260.073 45.6066 260.087 45.4509 260.094 45.3448L257.431 49.3984H255.531V43.6045H257.059V45.8966ZM275.722 49.3984H274.014L275.573 47.1063C275.375 47.0214 275.188 46.9083 275.011 46.7668C274.841 46.6182 274.703 46.4307 274.597 46.2044C274.491 45.978 274.438 45.7091 274.438 45.3979C274.438 44.8178 274.657 44.3756 275.096 44.0714C275.535 43.7601 276.097 43.6045 276.783 43.6045H279.479V49.3984H277.897V47.2443H277.027L275.722 49.3984ZM275.987 45.4085C275.987 45.649 276.083 45.84 276.274 45.9815C276.465 46.1159 276.712 46.1831 277.017 46.1831H277.897V44.7187H276.815C276.532 44.7187 276.323 44.7895 276.189 44.931C276.055 45.0654 275.987 45.2245 275.987 45.4085Z" fill="white"/>
<path d="M64.814 35.7192V8.42106H74.15C76.443 8.42106 78.4206 8.79717 80.0828 9.54939C81.7571 10.2895 83.0431 11.3511 83.9409 12.7342C84.8387 14.1052 85.2876 15.743 85.2876 17.6478C85.2876 19.5527 84.8387 21.2027 83.9409 22.5979C83.0431 23.981 81.7631 25.0487 80.101 25.8009C78.451 26.5531 76.4855 26.9292 74.2046 26.9292H70.4192V35.7192H64.814ZM70.4192 22.0156H73.6222C75.527 22.0156 76.989 21.6394 78.0081 20.8872C79.0394 20.1229 79.555 19.0431 79.555 17.6478C79.555 16.2769 79.0394 15.2153 78.0081 14.4631C76.989 13.6987 75.527 13.3165 73.6222 13.3165H70.4192V22.0156ZM96.3656 35.7192H90.4874L101.37 8.42106H107.285L118.15 35.7192H112.271L110.033 29.8592H98.604L96.3656 35.7192ZM100.442 24.9456H108.213L104.318 14.827L100.442 24.9456ZM148.773 35.7192H142.567L136.835 25.8555H131.63V35.7192H126.025V8.42106H137.089C139.285 8.42106 141.166 8.76684 142.731 9.4584C144.296 10.1499 145.491 11.1509 146.316 12.4612C147.153 13.7594 147.572 15.3184 147.572 17.1383C147.572 19.0067 147.129 20.6021 146.243 21.9246C145.37 23.2349 144.12 24.2176 142.494 24.8728L148.773 35.7192ZM131.63 21.3968H136.671C138.333 21.3968 139.607 21.051 140.493 20.3595C141.39 19.6558 141.839 18.6548 141.839 17.3567C141.839 16.0585 141.39 15.0636 140.493 14.3721C139.607 13.6684 138.333 13.3165 136.671 13.3165H131.63V21.3968ZM161.07 35.7192H155.192L166.075 8.42106H171.99L182.854 35.7192H176.976L174.738 29.8592H163.309L161.07 35.7192ZM165.147 24.9456H172.918L169.023 14.827L165.147 24.9456ZM217.5 35.7192H212.349L206.799 17.666L201.23 35.7192H196.08L187.199 8.42106H193.077L198.646 26.5653L204.214 8.42106H209.365L214.915 26.5289L220.448 8.42106H226.344L217.5 35.7192ZM234.31 35.7192V8.42106H251.927V13.3165H239.915V19.5223H251.18V24.436H239.915V30.8238H252.109V35.7192H234.31ZM261.585 35.7192V8.42106H271.685C274.621 8.42106 276.896 9.04589 278.51 10.2955C280.136 11.5331 280.949 13.2741 280.949 15.5186C280.949 16.8896 280.627 18.1028 279.984 19.1583C279.341 20.2017 278.474 20.9964 277.382 21.5424C278.935 22.0034 280.142 22.7981 281.003 23.9264C281.877 25.0426 282.313 26.4136 282.313 28.0394C282.313 29.5923 281.931 30.9451 281.167 32.0977C280.415 33.2381 279.347 34.1299 277.964 34.7729C276.593 35.4038 274.979 35.7192 273.123 35.7192H261.585ZM267.19 19.8499H271.376C272.626 19.8499 273.614 19.5527 274.342 18.9582C275.07 18.3637 275.434 17.5569 275.434 16.5377C275.434 15.5429 275.064 14.7603 274.324 14.1901C273.596 13.6077 272.583 13.3165 271.285 13.3165H267.19V19.8499ZM267.19 30.8238H271.722C272.717 30.8238 273.578 30.6842 274.306 30.4052C275.034 30.114 275.592 29.7076 275.98 29.1859C276.381 28.652 276.581 28.0333 276.581 27.3296C276.581 26.6259 276.399 26.0254 276.035 25.5279C275.683 25.0305 275.167 24.6544 274.488 24.3996C273.809 24.1327 273.002 23.9992 272.068 23.9992H267.19V30.8238Z" fill="white"/>
<mask id="path-3-inside-1_66_743" fill="white">
<path fill-rule="evenodd" clip-rule="evenodd" d="M34.2694 22.7938C35.3162 22.5593 36.3856 22.441 37.4583 22.441C38.8856 22.441 40.3051 22.6505 41.6716 23.0627L45.4071 24.1895L45.3995 7.59985L44.7085 0.835449L43.208 1.83166L42.2768 3.90129C41.7796 5.00647 41.1919 6.06866 40.5196 7.077L39.8329 8.10708L39.003 9.10301C38.1458 10.1316 37.1604 11.0462 36.0709 11.8244C35.5244 12.2148 34.9538 12.5693 34.3627 12.8861L35.6376 11.3562C36.0411 10.872 36.3954 10.3488 36.6953 9.79438C38.1346 7.13361 38.2208 3.94642 36.9273 1.21179L36.8639 1.07782H26.7148L26.9573 1.49153C29.1391 5.21274 29.6656 9.67663 28.4097 13.8034L28.3382 14.0383C27.9905 15.1807 27.4938 16.2723 26.8609 17.2849C26.2767 18.2196 25.5883 19.085 24.8088 19.8644L24.5157 20.1576L23.97 20.7032L21.6037 22.6192C20.6145 23.4202 19.5576 24.1338 18.445 24.7519L16.8184 25.6556L15.3523 26.3886L13.5197 27.1217L11.3206 27.8547L8.75492 28.5877L7.28884 28.9543L5.45623 29.3208L4.45396 29.4878C3.65742 29.6206 2.85127 29.6873 2.04373 29.6873H1.79102V52.5554H2.05065L3.30666 49.0039C3.81642 47.5625 4.4751 46.1782 5.27202 44.8735L5.852 43.9239L7.9968 40.8549C9.15679 39.3237 10.4566 37.9037 11.8794 36.613L12.9316 35.6586L16.8184 32.4152L20.3599 29.7647L24.1787 27.1217L25.9628 26.0073C27.0498 25.3283 28.1941 24.7457 29.3826 24.266L29.8169 24.0907C30.9271 23.6427 32.0721 23.286 33.2403 23.0243L34.2694 22.7938Z"/>
</mask>
<path fill-rule="evenodd" clip-rule="evenodd" d="M34.2694 22.7938C35.3162 22.5593 36.3856 22.441 37.4583 22.441C38.8856 22.441 40.3051 22.6505 41.6716 23.0627L45.4071 24.1895L45.3995 7.59985L44.7085 0.835449L43.208 1.83166L42.2768 3.90129C41.7796 5.00647 41.1919 6.06866 40.5196 7.077L39.8329 8.10708L39.003 9.10301C38.1458 10.1316 37.1604 11.0462 36.0709 11.8244C35.5244 12.2148 34.9538 12.5693 34.3627 12.8861L35.6376 11.3562C36.0411 10.872 36.3954 10.3488 36.6953 9.79438C38.1346 7.13361 38.2208 3.94642 36.9273 1.21179L36.8639 1.07782H26.7148L26.9573 1.49153C29.1391 5.21274 29.6656 9.67663 28.4097 13.8034L28.3382 14.0383C27.9905 15.1807 27.4938 16.2723 26.8609 17.2849C26.2767 18.2196 25.5883 19.085 24.8088 19.8644L24.5157 20.1576L23.97 20.7032L21.6037 22.6192C20.6145 23.4202 19.5576 24.1338 18.445 24.7519L16.8184 25.6556L15.3523 26.3886L13.5197 27.1217L11.3206 27.8547L8.75492 28.5877L7.28884 28.9543L5.45623 29.3208L4.45396 29.4878C3.65742 29.6206 2.85127 29.6873 2.04373 29.6873H1.79102V52.5554H2.05065L3.30666 49.0039C3.81642 47.5625 4.4751 46.1782 5.27202 44.8735L5.852 43.9239L7.9968 40.8549C9.15679 39.3237 10.4566 37.9037 11.8794 36.613L12.9316 35.6586L16.8184 32.4152L20.3599 29.7647L24.1787 27.1217L25.9628 26.0073C27.0498 25.3283 28.1941 24.7457 29.3826 24.266L29.8169 24.0907C30.9271 23.6427 32.0721 23.286 33.2403 23.0243L34.2694 22.7938Z" fill="white"/>
<path d="M34.2694 22.7938L34.2747 22.8175L34.2694 22.7938ZM41.6716 23.0627L41.6786 23.0394L41.6716 23.0627ZM45.4071 24.1895L45.4001 24.2127L45.4313 24.2221L45.4313 24.1895L45.4071 24.1895ZM45.3995 7.59985L45.4239 7.59984L45.4236 7.59739L45.3995 7.59985ZM44.7085 0.835449L44.7327 0.832985L44.7286 0.793044L44.6951 0.81525L44.7085 0.835449ZM43.208 1.83166L43.1921 1.80779L43.1858 1.82171L43.208 1.83166ZM42.2768 3.90129L42.2547 3.89134L42.2768 3.90129ZM40.5196 7.077L40.5398 7.09045L40.5196 7.077ZM39.8329 8.10708L39.8516 8.12269L39.8531 8.12053L39.8329 8.10708ZM39.003 9.10301L39.0216 9.11853L39.003 9.10301ZM36.0709 11.8244L36.0568 11.8047L36.0709 11.8244ZM34.3627 12.8861L34.344 12.8706L34.3741 12.9075L34.3627 12.8861ZM35.6376 11.3562L35.6562 11.3717L35.6376 11.3562ZM36.6953 9.79438L36.7166 9.80592L36.6953 9.79438ZM36.9273 1.21179L36.9053 1.22216V1.22216L36.9273 1.21179ZM36.8639 1.07782L36.8858 1.06746L36.8793 1.05358H36.8639V1.07782ZM26.7148 1.07782V1.05358H26.6725L26.6939 1.09009L26.7148 1.07782ZM26.9573 1.49153L26.9783 1.47926L26.9573 1.49153ZM28.4097 13.8034L28.3865 13.7963L28.4097 13.8034ZM28.3382 14.0383L28.3614 14.0453L28.3382 14.0383ZM26.8609 17.2849L26.8403 17.2721L26.8609 17.2849ZM23.97 20.7032L23.9854 20.7222L23.9872 20.7204L23.97 20.7032ZM21.6037 22.6192L21.5885 22.6004L21.6037 22.6192ZM18.445 24.7519L18.4332 24.7307L18.445 24.7519ZM16.8184 25.6556L16.8293 25.6773L16.8302 25.6768L16.8184 25.6556ZM15.3523 26.3886L15.3613 26.4112L15.3632 26.4103L15.3523 26.3886ZM13.5197 27.1217L13.5274 27.1447L13.5287 27.1442L13.5197 27.1217ZM11.3206 27.8547L11.3272 27.878L11.3282 27.8777L11.3206 27.8547ZM8.75492 28.5877L8.76081 28.6113L8.76159 28.611L8.75492 28.5877ZM7.28884 28.9543L7.2936 28.9781L7.29472 28.9778L7.28884 28.9543ZM5.45623 29.3208L5.46022 29.3447L5.46099 29.3446L5.45623 29.3208ZM4.45396 29.4878L4.44998 29.4639H4.44998L4.45396 29.4878ZM1.79102 29.6873V29.6631H1.76677V29.6873H1.79102ZM1.79102 52.5554H1.76677V52.5796H1.79102V52.5554ZM2.05065 52.5554V52.5796H2.06779L2.07351 52.5635L2.05065 52.5554ZM3.30666 49.0039L3.32952 49.012L3.30666 49.0039ZM5.27202 44.8735L5.25133 44.8608L5.27202 44.8735ZM5.852 43.9239L5.83209 43.91L5.83131 43.9113L5.852 43.9239ZM7.9968 40.8549L7.97746 40.8403L7.97693 40.841L7.9968 40.8549ZM11.8794 36.613L11.8631 36.5951L11.8794 36.613ZM12.9316 35.6586L12.916 35.6399L12.9153 35.6406L12.9316 35.6586ZM16.8184 32.4152L16.8039 32.3958L16.8029 32.3966L16.8184 32.4152ZM20.3599 29.7647L20.3461 29.7448L20.3454 29.7453L20.3599 29.7647ZM24.1787 27.1217L24.1659 27.1011L24.1649 27.1017L24.1787 27.1217ZM25.9628 26.0073L25.9499 25.9867L25.9628 26.0073ZM29.3826 24.266L29.3736 24.2435L29.3826 24.266ZM29.8169 24.0907L29.8259 24.1132L29.8169 24.0907ZM33.2403 23.0243L33.2456 23.048L33.2403 23.0243ZM37.4583 22.4168C36.3838 22.4168 35.3126 22.5353 34.2641 22.7701L34.2747 22.8175C35.3197 22.5834 36.3874 22.4653 37.4583 22.4653V22.4168ZM41.6786 23.0394C40.3099 22.6266 38.888 22.4168 37.4583 22.4168V22.4653C38.8832 22.4653 40.3004 22.6744 41.6646 23.0859L41.6786 23.0394ZM45.4141 24.1663L41.6786 23.0394L41.6646 23.0859L45.4001 24.2127L45.4141 24.1663ZM45.3753 7.59986L45.3828 24.1895L45.4313 24.1895L45.4238 7.59984L45.3753 7.59986ZM44.6844 0.837913L45.3754 7.60232L45.4236 7.59739L44.7327 0.832985L44.6844 0.837913ZM43.2214 1.85186L44.7219 0.855648L44.6951 0.81525L43.1945 1.81146L43.2214 1.85186ZM42.2989 3.91123L43.2301 1.84161L43.1858 1.82171L42.2547 3.89134L42.2989 3.91123ZM40.5398 7.09045C41.2128 6.081 41.8012 5.01763 42.2989 3.91123L42.2547 3.89134C41.758 4.9953 41.1709 6.05632 40.4995 7.06356L40.5398 7.09045ZM39.8531 8.12053L40.5398 7.09045L40.4995 7.06356L39.8127 8.09363L39.8531 8.12053ZM39.0216 9.11853L39.8515 8.1226L39.8143 8.09156L38.9843 9.08749L39.0216 9.11853ZM36.085 11.8442C37.1762 11.0647 38.1631 10.1487 39.0216 9.11853L38.9843 9.08749C38.1285 10.1145 37.1446 11.0277 36.0568 11.8047L36.085 11.8442ZM34.3741 12.9075C34.9662 12.5902 35.5377 12.2351 36.085 11.8442L36.0568 11.8047C35.5112 12.1944 34.9415 12.5484 34.3512 12.8647L34.3741 12.9075ZM35.6189 11.3407L34.344 12.8706L34.3813 12.9016L35.6562 11.3717L35.6189 11.3407ZM36.674 9.78284C36.3749 10.3358 36.0214 10.8577 35.6189 11.3407L35.6562 11.3717C36.0607 10.8863 36.416 10.3617 36.7166 9.80592L36.674 9.78284ZM36.9053 1.22216C38.1956 3.94981 38.1096 7.12886 36.674 9.78284L36.7166 9.80592C38.1596 7.13835 38.246 3.94303 36.9492 1.20142L36.9053 1.22216ZM36.842 1.08819L36.9053 1.22216L36.9492 1.20142L36.8858 1.06746L36.842 1.08819ZM26.7148 1.10207H36.8639V1.05358H26.7148V1.10207ZM26.9783 1.47926L26.7357 1.06556L26.6939 1.09009L26.9364 1.50379L26.9783 1.47926ZM28.4329 13.8104C29.6908 9.67722 29.1634 5.20632 26.9783 1.47926L26.9364 1.50379C29.1147 5.21917 29.6405 9.67605 28.3865 13.7963L28.4329 13.8104ZM28.3614 14.0453L28.4329 13.8104L28.3865 13.7963L28.315 14.0312L28.3614 14.0453ZM26.8814 17.2978C27.5155 16.2833 28.013 15.1898 28.3614 14.0453L28.315 14.0312C27.9679 15.1716 27.4721 16.2613 26.8403 17.2721L26.8814 17.2978ZM24.826 19.8816C25.6067 19.1009 26.2963 18.2341 26.8814 17.2978L26.8403 17.2721C26.2571 18.2052 25.5698 19.0692 24.7917 19.8473L24.826 19.8816ZM24.5328 20.1748L24.826 19.8816L24.7917 19.8473L24.4985 20.1405L24.5328 20.1748ZM23.9872 20.7204L24.5328 20.1748L24.4985 20.1405L23.9529 20.6861L23.9872 20.7204ZM21.619 22.6381L23.9853 20.7221L23.9548 20.6844L21.5885 22.6004L21.619 22.6381ZM18.4567 24.7731C19.5706 24.1543 20.6287 23.4399 21.619 22.6381L21.5885 22.6004C20.6003 23.4005 19.5446 24.1133 18.4332 24.7307L18.4567 24.7731ZM16.8302 25.6768L18.4567 24.7731L18.4332 24.7307L16.8066 25.6344L16.8302 25.6768ZM15.3632 26.4103L16.8292 25.6773L16.8076 25.6339L15.3415 26.3669L15.3632 26.4103ZM13.5287 27.1442L15.3613 26.4111L15.3433 26.3661L13.5107 27.0991L13.5287 27.1442ZM11.3282 27.8777L13.5274 27.1447L13.512 27.0987L11.3129 27.8317L11.3282 27.8777ZM8.76159 28.611L11.3272 27.878L11.3139 27.8314L8.74826 28.5644L8.76159 28.611ZM7.29472 28.9778L8.76081 28.6113L8.74904 28.5642L7.28296 28.9307L7.29472 28.9778ZM5.46099 29.3446L7.29359 28.978L7.28408 28.9305L5.45148 29.297L5.46099 29.3446ZM4.45795 29.5117L5.46022 29.3447L5.45225 29.2969L4.44998 29.4639L4.45795 29.5117ZM2.04373 29.7115C2.8526 29.7115 3.66009 29.6447 4.45795 29.5117L4.44998 29.4639C3.65475 29.5964 2.84993 29.6631 2.04373 29.6631V29.7115ZM1.79102 29.7115H2.04373V29.6631H1.79102V29.7115ZM1.81526 52.5554V29.6873H1.76677V52.5554H1.81526ZM2.05065 52.5312H1.79102V52.5796H2.05065V52.5312ZM3.28381 48.9958L2.02779 52.5473L2.07351 52.5635L3.32952 49.012L3.28381 48.9958ZM5.25133 44.8608C4.45353 46.167 3.79413 47.5528 3.28381 48.9958L3.32952 49.012C3.83872 47.5722 4.49667 46.1894 5.29271 44.8861L5.25133 44.8608ZM5.83131 43.9113L5.25133 44.8608L5.29271 44.8861L5.87269 43.9365L5.83131 43.9113ZM7.97693 40.841L5.83213 43.91L5.87187 43.9378L8.01668 40.8688L7.97693 40.841ZM11.8631 36.5951C10.4392 37.8867 9.13837 39.3079 7.97748 40.8403L8.01613 40.8695C9.1752 39.3396 10.474 37.9206 11.8956 36.631L11.8631 36.5951ZM12.9153 35.6406L11.8631 36.5951L11.8956 36.631L12.9479 35.6765L12.9153 35.6406ZM16.8029 32.3966L12.9161 35.6399L12.9471 35.6772L16.8339 32.4338L16.8029 32.3966ZM20.3454 29.7453L16.8039 32.3958L16.8329 32.4346L20.3744 29.7841L20.3454 29.7453ZM24.1649 27.1017L20.3461 29.7448L20.3737 29.7847L24.1925 27.1416L24.1649 27.1017ZM25.9499 25.9867L24.1659 27.1011L24.1916 27.1422L25.9756 26.0279L25.9499 25.9867ZM29.3736 24.2435C28.1837 24.7237 27.0382 25.307 25.9499 25.9867L25.9756 26.0279C27.0614 25.3496 28.2045 24.7676 29.3917 24.2885L29.3736 24.2435ZM29.8078 24.0682L29.3736 24.2435L29.3917 24.2885L29.8259 24.1132L29.8078 24.0682ZM33.235 23.0006C32.0655 23.2626 30.9192 23.6197 29.8078 24.0682L29.8259 24.1132C30.9349 23.6656 32.0786 23.3094 33.2456 23.048L33.235 23.0006ZM34.2641 22.7701L33.235 23.0006L33.2456 23.048L34.2747 22.8175L34.2641 22.7701Z" fill="white" mask="url(#path-3-inside-1_66_743)"/>
<path d="M16.31 37.1964L15.5999 38.4294C15.0469 39.3895 14.5984 40.4061 14.262 41.4618L14.262 41.4618C13.7999 42.9172 13.5899 44.4408 13.6409 45.9669L13.6512 46.2762C13.7293 48.6144 14.4497 50.8859 15.7332 52.8416H6.76929L8.39891 48.3846C8.39893 48.3846 8.39895 48.3845 8.39898 48.3845C9.84919 44.759 12.0238 41.4675 14.7898 38.7113L16.31 37.1964Z" fill="white" stroke="white" stroke-width="0.0242452"/>
<path d="M1.21226 6.06129C1.21226 3.38325 3.38325 1.21226 6.06129 1.21226H45.7264V47.86C45.7264 50.538 43.5554 52.709 40.8774 52.709H1.21226V6.06129Z" stroke="white" stroke-width="2.42452"/>
<mask id="path-7-inside-2_66_743" fill="white">
<path fill-rule="evenodd" clip-rule="evenodd" d="M46.8737 24.5562C30.0047 18.1623 13.7881 35.2814 21.0853 51.7797L21.8513 53.5114H40.8124C44.16 53.5114 46.8737 50.7976 46.8737 47.4501V24.5562ZM34.7506 45.4484C39.0858 45.4484 42.6002 41.934 42.6002 37.5988C42.6002 33.2637 39.0858 29.7493 34.7506 29.7493C30.4155 29.7493 26.9011 33.2637 26.9011 37.5988C26.9011 41.934 30.4155 45.4484 34.7506 45.4484ZM25.3997 37.9212C25.3997 38.3261 25.0715 38.6543 24.6667 38.6543C24.2618 38.6543 23.9336 38.3261 23.9336 37.9212C23.9336 37.5164 24.2618 37.1882 24.6667 37.1882C25.0715 37.1882 25.3997 37.5164 25.3997 37.9212ZM24.2998 43.0521C24.907 43.0521 25.3993 42.5598 25.3993 41.9525C25.3993 41.3452 24.907 40.8529 24.2998 40.8529C23.6925 40.8529 23.2002 41.3452 23.2002 41.9525C23.2002 42.5598 23.6925 43.0521 24.2998 43.0521ZM28.3326 45.9845C28.3326 46.7942 27.6762 47.4506 26.8665 47.4506C26.0568 47.4506 25.4004 46.7942 25.4004 45.9845C25.4004 45.1748 26.0568 44.5185 26.8665 44.5185C27.6762 44.5185 28.3326 45.1748 28.3326 45.9845ZM32.3623 49.6497C33.3744 49.6497 34.1949 48.8292 34.1949 47.8171C34.1949 46.805 33.3744 45.9845 32.3623 45.9845C31.3502 45.9845 30.5297 46.805 30.5297 47.8171C30.5297 48.8292 31.3502 49.6497 32.3623 49.6497Z"/>
</mask>
<path fill-rule="evenodd" clip-rule="evenodd" d="M46.8737 24.5562C30.0047 18.1623 13.7881 35.2814 21.0853 51.7797L21.8513 53.5114H40.8124C44.16 53.5114 46.8737 50.7976 46.8737 47.4501V24.5562ZM34.7506 45.4484C39.0858 45.4484 42.6002 41.934 42.6002 37.5988C42.6002 33.2637 39.0858 29.7493 34.7506 29.7493C30.4155 29.7493 26.9011 33.2637 26.9011 37.5988C26.9011 41.934 30.4155 45.4484 34.7506 45.4484ZM25.3997 37.9212C25.3997 38.3261 25.0715 38.6543 24.6667 38.6543C24.2618 38.6543 23.9336 38.3261 23.9336 37.9212C23.9336 37.5164 24.2618 37.1882 24.6667 37.1882C25.0715 37.1882 25.3997 37.5164 25.3997 37.9212ZM24.2998 43.0521C24.907 43.0521 25.3993 42.5598 25.3993 41.9525C25.3993 41.3452 24.907 40.8529 24.2998 40.8529C23.6925 40.8529 23.2002 41.3452 23.2002 41.9525C23.2002 42.5598 23.6925 43.0521 24.2998 43.0521ZM28.3326 45.9845C28.3326 46.7942 27.6762 47.4506 26.8665 47.4506C26.0568 47.4506 25.4004 46.7942 25.4004 45.9845C25.4004 45.1748 26.0568 44.5185 26.8665 44.5185C27.6762 44.5185 28.3326 45.1748 28.3326 45.9845ZM32.3623 49.6497C33.3744 49.6497 34.1949 48.8292 34.1949 47.8171C34.1949 46.805 33.3744 45.9845 32.3623 45.9845C31.3502 45.9845 30.5297 46.805 30.5297 47.8171C30.5297 48.8292 31.3502 49.6497 32.3623 49.6497Z" fill="white"/>
<path d="M21.0853 51.7797L21.1075 51.7699L21.0853 51.7797ZM46.8737 24.5562H46.8979V24.5394L46.8823 24.5335L46.8737 24.5562ZM21.8513 53.5114L21.8291 53.5212L21.8355 53.5356H21.8513V53.5114ZM21.1075 51.7699C13.819 35.2913 30.0162 18.1926 46.8651 24.5788L46.8823 24.5335C29.9932 18.132 13.7572 35.2715 21.0632 51.7895L21.1075 51.7699ZM21.8734 53.5016L21.1075 51.7699L21.0632 51.7895L21.8291 53.5212L21.8734 53.5016ZM40.8124 53.4871H21.8513V53.5356H40.8124V53.4871ZM46.8494 47.4501C46.8494 50.7843 44.1466 53.4871 40.8124 53.4871V53.5356C44.1733 53.5356 46.8979 50.811 46.8979 47.4501H46.8494ZM46.8494 24.5562V47.4501H46.8979V24.5562H46.8494ZM42.5759 37.5988C42.5759 41.9206 39.0724 45.4241 34.7506 45.4241V45.4726C39.0992 45.4726 42.6244 41.9474 42.6244 37.5988H42.5759ZM34.7506 29.7736C39.0724 29.7736 42.5759 33.2771 42.5759 37.5988H42.6244C42.6244 33.2503 39.0992 29.7251 34.7506 29.7251V29.7736ZM26.9254 37.5988C26.9254 33.2771 30.4289 29.7736 34.7506 29.7736V29.7251C30.4021 29.7251 26.8769 33.2503 26.8769 37.5988H26.9254ZM34.7506 45.4241C30.4289 45.4241 26.9254 41.9206 26.9254 37.5988H26.8769C26.8769 41.9474 30.4021 45.4726 34.7506 45.4726V45.4241ZM24.6667 38.6785C25.0849 38.6785 25.4239 38.3395 25.4239 37.9212H25.3755C25.3755 38.3127 25.0581 38.63 24.6667 38.63V38.6785ZM23.9094 37.9212C23.9094 38.3395 24.2484 38.6785 24.6667 38.6785V38.63C24.2752 38.63 23.9579 38.3127 23.9579 37.9212H23.9094ZM24.6667 37.1639C24.2484 37.1639 23.9094 37.503 23.9094 37.9212H23.9579C23.9579 37.5298 24.2752 37.2124 24.6667 37.2124V37.1639ZM25.4239 37.9212C25.4239 37.503 25.0849 37.1639 24.6667 37.1639V37.2124C25.0581 37.2124 25.3755 37.5298 25.3755 37.9212H25.4239ZM25.3751 41.9525C25.3751 42.5464 24.8936 43.0278 24.2998 43.0278V43.0763C24.9204 43.0763 25.4236 42.5732 25.4236 41.9525H25.3751ZM24.2998 40.8772C24.8936 40.8772 25.3751 41.3586 25.3751 41.9525H25.4236C25.4236 41.3318 24.9204 40.8287 24.2998 40.8287V40.8772ZM23.2244 41.9525C23.2244 41.3586 23.7059 40.8772 24.2998 40.8772V40.8287C23.6791 40.8287 23.1759 41.3318 23.1759 41.9525H23.2244ZM24.2998 43.0278C23.7059 43.0278 23.2244 42.5464 23.2244 41.9525H23.1759C23.1759 42.5732 23.6791 43.0763 24.2998 43.0763V43.0278ZM26.8665 47.4749C27.6896 47.4749 28.3569 46.8076 28.3569 45.9845H28.3084C28.3084 46.7808 27.6628 47.4264 26.8665 47.4264V47.4749ZM25.3762 45.9845C25.3762 46.8076 26.0434 47.4749 26.8665 47.4749V47.4264C26.0702 47.4264 25.4247 46.7808 25.4247 45.9845H25.3762ZM26.8665 44.4942C26.0434 44.4942 25.3762 45.1615 25.3762 45.9845H25.4247C25.4247 45.1882 26.0702 44.5427 26.8665 44.5427V44.4942ZM28.3569 45.9845C28.3569 45.1615 27.6896 44.4942 26.8665 44.4942V44.5427C27.6628 44.5427 28.3084 45.1882 28.3084 45.9845H28.3569ZM34.1706 47.8171C34.1706 48.8158 33.361 49.6255 32.3623 49.6255V49.674C33.3878 49.674 34.2191 48.8426 34.2191 47.8171H34.1706ZM32.3623 46.0088C33.361 46.0088 34.1706 46.8184 34.1706 47.8171H34.2191C34.2191 46.7916 33.3878 45.9603 32.3623 45.9603V46.0088ZM30.5539 47.8171C30.5539 46.8184 31.3635 46.0088 32.3623 46.0088V45.9603C31.3368 45.9603 30.5054 46.7916 30.5054 47.8171H30.5539ZM32.3623 49.6255C31.3635 49.6255 30.5539 48.8158 30.5539 47.8171H30.5054C30.5054 48.8426 31.3368 49.674 32.3623 49.674V49.6255Z" fill="white" mask="url(#path-7-inside-2_66_743)"/>
<mask id="path-9-inside-3_66_743" fill="white">
<path fill-rule="evenodd" clip-rule="evenodd" d="M26.8371 0.278809C32.6251 14.9275 16.5465 28.5783 3.03103 20.4903L0.272461 18.8395V6.3401C0.272461 2.99254 2.9862 0.278809 6.33376 0.278809H26.8371ZM13.6905 17.1779C17.1521 17.1779 19.9584 14.3717 19.9584 10.9101C19.9584 7.44841 17.1521 4.6422 13.6905 4.6422C10.2289 4.6422 7.42264 7.44841 7.42264 10.9101C7.42264 14.3717 10.2289 17.1779 13.6905 17.1779Z"/>
</mask>
<path fill-rule="evenodd" clip-rule="evenodd" d="M26.8371 0.278809C32.6251 14.9275 16.5465 28.5783 3.03103 20.4903L0.272461 18.8395V6.3401C0.272461 2.99254 2.9862 0.278809 6.33376 0.278809H26.8371ZM13.6905 17.1779C17.1521 17.1779 19.9584 14.3717 19.9584 10.9101C19.9584 7.44841 17.1521 4.6422 13.6905 4.6422C10.2289 4.6422 7.42264 7.44841 7.42264 10.9101C7.42264 14.3717 10.2289 17.1779 13.6905 17.1779Z" fill="white"/>
<path d="M3.03103 20.4903L3.01858 20.5111L3.03103 20.4903ZM26.8371 0.278809L26.8596 0.269899L26.8535 0.254563H26.8371V0.278809ZM0.272461 18.8395H0.248216V18.8533L0.260011 18.8603L0.272461 18.8395ZM3.01858 20.5111C16.5539 28.611 32.6561 14.9401 26.8596 0.269899L26.8145 0.287718C32.594 14.9148 16.5391 28.5456 3.04348 20.4695L3.01858 20.5111ZM0.260011 18.8603L3.01858 20.5111L3.04348 20.4695L0.284911 18.8187L0.260011 18.8603ZM0.248216 6.3401V18.8395H0.296706V6.3401H0.248216ZM6.33376 0.254563C2.97281 0.254563 0.248216 2.97915 0.248216 6.3401H0.296706C0.296706 3.00593 2.99959 0.303054 6.33376 0.303054V0.254563ZM26.8371 0.254563H6.33376V0.303054H26.8371V0.254563ZM19.9341 10.9101C19.9341 14.3583 17.1388 17.1537 13.6905 17.1537V17.2022C17.1655 17.2022 19.9826 14.3851 19.9826 10.9101H19.9341ZM13.6905 4.66644C17.1388 4.66644 19.9341 7.4618 19.9341 10.9101H19.9826C19.9826 7.43502 17.1655 4.61795 13.6905 4.61795V4.66644ZM7.44688 10.9101C7.44688 7.4618 10.2422 4.66644 13.6905 4.66644V4.61795C10.2155 4.61795 7.39839 7.43502 7.39839 10.9101H7.44688ZM13.6905 17.1537C10.2422 17.1537 7.44688 14.3583 7.44688 10.9101H7.39839C7.39839 14.3851 10.2155 17.2022 13.6905 17.2022V17.1537Z" fill="white" mask="url(#path-9-inside-3_66_743)"/>
</svg>
