<svg width="40" height="40" viewBox="0 0 40 40" fill="none" xmlns="http://www.w3.org/2000/svg">
<g clip-path="url(#clip0_199_1316)">
<path d="M10 14.763V14.25C10 13.9185 10.1317 13.6005 10.3661 13.3661C10.6005 13.1317 10.9185 13 11.25 13H28.75C29.0815 13 29.3995 13.1317 29.6339 13.3661C29.8683 13.6005 30 13.9185 30 14.25V14.763L20 21.013L10 14.763ZM20.3313 22.2802C20.2319 22.3422 20.1171 22.375 20 22.375C19.8829 22.375 19.7681 22.3422 19.6688 22.2802L10 16.237V26.75C10 27.0815 10.1317 27.3995 10.3661 27.6339C10.6005 27.8683 10.9185 28 11.25 28H28.75C29.0815 28 29.3995 27.8683 29.6339 27.6339C29.8683 27.3995 30 27.0815 30 26.75V16.237L20.3313 22.2802Z" fill="white"/>
</g>
<circle cx="20" cy="20" r="19.5" stroke="white"/>
<defs>
<clipPath id="clip0_199_1316">
<rect width="20" height="15" fill="white" transform="translate(10 13)"/>
</clipPath>
</defs>
</svg>
