<svg width="40" height="40" viewBox="0 0 40 40" fill="none" xmlns="http://www.w3.org/2000/svg">
<circle cx="20" cy="20" r="19.5" stroke="white"/>
<path d="M20.5 9C14.7009 9 10 13.7009 10 19.5C10 25.2991 14.7009 30 20.5 30C26.2991 30 31 25.2991 31 19.5C31 13.7009 26.2991 9 20.5 9ZM24.5381 20.8464C24.5381 20.8464 25.4667 21.763 25.6953 22.1884C25.7019 22.1972 25.7052 22.2059 25.7073 22.2103C25.8003 22.3667 25.8222 22.4881 25.7763 22.5789C25.6997 22.7298 25.4372 22.8042 25.3475 22.8108H23.7069C23.5931 22.8108 23.3547 22.7813 23.0659 22.5822C22.8439 22.4269 22.6252 22.172 22.4119 21.9237C22.0936 21.5541 21.818 21.2347 21.5402 21.2347C21.5049 21.2346 21.4698 21.2402 21.4363 21.2511C21.2263 21.3189 20.9572 21.6186 20.9572 22.417C20.9572 22.6664 20.7603 22.8097 20.6214 22.8097H19.87C19.6141 22.8097 18.2808 22.72 17.0995 21.4742C15.6536 19.9484 14.352 16.8881 14.3411 16.8597C14.2591 16.6617 14.4286 16.5556 14.6134 16.5556H16.2705C16.4914 16.5556 16.5636 16.6902 16.6139 16.8094C16.673 16.9483 16.8895 17.5006 17.245 18.1219C17.8214 19.1347 18.1747 19.5459 18.458 19.5459C18.5111 19.5453 18.5633 19.5318 18.61 19.5066C18.9797 19.3009 18.9108 17.983 18.8944 17.7095C18.8944 17.6581 18.8933 17.12 18.7041 16.8619C18.5684 16.6748 18.3377 16.6037 18.1977 16.5775C18.2543 16.4993 18.329 16.4359 18.4153 16.3927C18.6691 16.2658 19.1263 16.2472 19.5802 16.2472H19.8328C20.325 16.2538 20.4519 16.2855 20.6302 16.3303C20.9911 16.4167 20.9988 16.6497 20.967 17.447C20.9572 17.6734 20.9473 17.9294 20.9473 18.2313C20.9473 18.2969 20.9441 18.3669 20.9441 18.4412C20.9331 18.847 20.92 19.3075 21.2066 19.4967C21.2439 19.5202 21.2871 19.5327 21.3313 19.5328C21.4308 19.5328 21.7305 19.5328 22.542 18.1405C22.7923 17.6923 23.0098 17.2266 23.1928 16.747C23.2092 16.7186 23.2573 16.6311 23.3142 16.5972C23.3562 16.5758 23.4027 16.5649 23.4498 16.5655H25.3978C25.61 16.5655 25.7555 16.5972 25.7828 16.6792C25.8309 16.8094 25.7741 17.2064 24.8848 18.4106L24.4878 18.9345C23.6817 19.9911 23.6817 20.0447 24.5381 20.8464Z" fill="white"/>
</svg>
