<svg width="40" height="40" viewBox="0 0 40 40" fill="none" xmlns="http://www.w3.org/2000/svg">
<circle cx="20" cy="20" r="19.5" stroke="white"/>
<path d="M20.1357 10.0141C13.8802 10.3265 9.75079 15.015 10.0117 20.9272C10.1256 23.515 11.2142 25.7417 11.4721 28.1977C11.5381 28.834 11.3462 29.6192 12.1139 29.8972C13.0585 30.2382 14.5069 29.665 15.2986 29.1406C15.5685 28.9658 15.8264 28.7623 16.0243 28.5101C16.843 29.0288 17.6197 29.5304 18.5943 29.7539C22.8856 30.7369 27.5877 28.4872 29.6779 24.8734C33.6063 18.0843 28.2954 9.60716 20.1357 10.0141ZM17.7066 24.1827C17.3678 24.4349 17.0409 24.7788 16.666 24.9766C16.1233 25.2545 15.9553 24.9651 15.7514 24.5066C15.1097 23.0479 15.0317 20.5632 15.4065 19.0357C15.9103 16.958 17.5927 15.1296 19.9048 14.9347C22.2438 14.737 24.415 15.8718 25.3956 17.9209C27.5667 22.4804 22.0099 26.9826 17.7066 24.1856V24.1827Z" fill="white"/>
</svg>
