<svg width="40" height="40" viewBox="0 0 40 40" fill="none" xmlns="http://www.w3.org/2000/svg">
<circle cx="20" cy="20" r="19.5" stroke="white"/>
<path d="M19.9943 10C18.0165 10 16.0831 10.5865 14.4386 11.6853C12.7941 12.7841 11.5123 14.3459 10.7555 16.1732C9.9986 18.0004 9.80056 20.0111 10.1864 21.9509C10.5723 23.8907 11.5247 25.6725 12.9232 27.0711C14.3217 28.4696 16.1036 29.422 18.0434 29.8079C19.9832 30.1937 21.9938 29.9957 23.8211 29.2388C25.6484 28.4819 27.2101 27.2002 28.309 25.5557C29.4078 23.9112 29.9943 21.9778 29.9943 20C29.9944 18.6868 29.7358 17.3863 29.2333 16.173C28.7308 14.9597 27.9942 13.8573 27.0656 12.9287C26.137 12.0001 25.0345 11.2635 23.8212 10.761C22.6079 10.2585 21.3075 9.99989 19.9943 10ZM23.1738 25.1525C23.1363 25.2458 23.0794 25.33 23.0067 25.3996C22.9341 25.4691 22.8474 25.5223 22.7525 25.5556C22.6576 25.5889 22.5567 25.6015 22.4566 25.5926C22.3564 25.5837 22.2593 25.5535 22.1718 25.504L19.4571 23.3946L17.7148 25.002C17.6744 25.0319 17.6271 25.0511 17.5773 25.0579C17.5275 25.0647 17.4767 25.0589 17.4298 25.0409L17.7638 22.0525L17.7745 22.061L17.7813 22.002C17.7813 22.002 22.6663 17.5544 22.8653 17.365C23.0668 17.176 23.0003 17.135 23.0003 17.135C23.0118 16.9044 22.6388 17.135 22.6388 17.135L16.1663 21.299L13.4708 20.381C13.4708 20.381 13.0568 20.2325 13.0178 19.906C12.9768 19.582 13.4843 19.406 13.4843 19.406L24.2013 15.1485C24.2013 15.1485 25.0823 14.756 25.0823 15.406L23.1738 25.1525Z" fill="white"/>
</svg>
