<svg width="40" height="40" viewBox="0 0 40 40" fill="none" xmlns="http://www.w3.org/2000/svg">
<circle cx="20" cy="20" r="19.5" stroke="white"/>
<g clip-path="url(#clip0_199_1321)">
<path d="M20.0025 10H19.9975C14.4838 10 10 14.485 10 20C9.99659 22.1063 10.6633 24.159 11.9038 25.8613L10.6575 29.5763L14.5013 28.3475C16.1317 29.4292 18.0459 30.0042 20.0025 30C25.5163 30 30 25.5137 30 20C30 14.4863 25.5163 10 20.0025 10ZM25.8213 24.1212C25.58 24.8025 24.6225 25.3675 23.8588 25.5325C23.3363 25.6437 22.6538 25.7325 20.3563 24.78C17.4175 23.5625 15.525 20.5762 15.3775 20.3825C15.2363 20.1887 14.19 18.8013 14.19 17.3663C14.19 15.9313 14.9188 15.2325 15.2125 14.9325C15.4538 14.6863 15.8525 14.5737 16.235 14.5737C16.3588 14.5737 16.47 14.58 16.57 14.585C16.8638 14.5975 17.0113 14.615 17.205 15.0788C17.4463 15.66 18.0338 17.095 18.1038 17.2425C18.175 17.39 18.2463 17.59 18.1463 17.7838C18.0525 17.9838 17.97 18.0725 17.8225 18.2425C17.675 18.4125 17.535 18.5425 17.3875 18.725C17.2525 18.8838 17.1 19.0538 17.27 19.3475C17.44 19.635 18.0275 20.5937 18.8925 21.3637C20.0088 22.3575 20.9138 22.675 21.2375 22.81C21.4788 22.91 21.7663 22.8863 21.9425 22.6988C22.1663 22.4575 22.4425 22.0575 22.7238 21.6638C22.9238 21.3813 23.1763 21.3462 23.4413 21.4462C23.7113 21.54 25.14 22.2462 25.4338 22.3925C25.7275 22.54 25.9213 22.61 25.9925 22.7338C26.0625 22.8575 26.0625 23.4387 25.8213 24.1212Z" fill="white"/>
</g>
<defs>
<clipPath id="clip0_199_1321">
<rect width="20" height="20" fill="white" transform="translate(10 10)"/>
</clipPath>
</defs>
</svg>
